<?xml version="1.0" encoding="UTF-8" standalone="no"?>
<!DOCTYPE svg PUBLIC "-//W3C//DTD SVG 1.1//EN"
 "http://www.w3.org/Graphics/SVG/1.1/DTD/svg11.dtd">
<!-- Generated by graphviz version 7.1.0 (20230121.1956)
 -->
<!-- Title: Tree Pages: 1 -->
<svg width="692pt" height="671pt"
 viewBox="0.00 0.00 692.00 671.00" xmlns="http://www.w3.org/2000/svg" xmlns:xlink="http://www.w3.org/1999/xlink">
<g id="graph0" class="graph" transform="scale(1 1) rotate(0) translate(4 667)">
<title>Tree</title>
<polygon fill="white" stroke="none" points="-4,4 -4,-667 688,-667 688,4 -4,4"/>
<!-- 0 -->
<g id="node1" class="node">
<title>0</title>
<path fill="#ffffff" stroke="black" d="M403.5,-663C403.5,-663 287.5,-663 287.5,-663 281.5,-663 275.5,-657 275.5,-651 275.5,-651 275.5,-592 275.5,-592 275.5,-586 281.5,-580 287.5,-580 287.5,-580 403.5,-580 403.5,-580 409.5,-580 415.5,-586 415.5,-592 415.5,-592 415.5,-651 415.5,-651 415.5,-657 409.5,-663 403.5,-663"/>
<text text-anchor="middle" x="345.5" y="-647.8" font-family="Helvetica,sans-Serif" font-size="14.00">petal_length &lt;= 2.45</text>
<text text-anchor="middle" x="345.5" y="-632.8" font-family="Helvetica,sans-Serif" font-size="14.00">entropy = 1.585</text>
<text text-anchor="middle" x="345.5" y="-617.8" font-family="Helvetica,sans-Serif" font-size="14.00">samples = 150</text>
<text text-anchor="middle" x="345.5" y="-602.8" font-family="Helvetica,sans-Serif" font-size="14.00">value = [50, 50, 50]</text>
<text text-anchor="middle" x="345.5" y="-587.8" font-family="Helvetica,sans-Serif" font-size="14.00">class = sentosa</text>
</g>
<!-- 1 -->
<g id="node2" class="node">
<title>1</title>
<path fill="#e58139" stroke="black" d="M320,-536.5C320,-536.5 227,-536.5 227,-536.5 221,-536.5 215,-530.5 215,-524.5 215,-524.5 215,-480.5 215,-480.5 215,-474.5 221,-468.5 227,-468.5 227,-468.5 320,-468.5 320,-468.5 326,-468.5 332,-474.5 332,-480.5 332,-480.5 332,-524.5 332,-524.5 332,-530.5 326,-536.5 320,-536.5"/>
<text text-anchor="middle" x="273.5" y="-521.3" font-family="Helvetica,sans-Serif" font-size="14.00">entropy = 0.0</text>
<text text-anchor="middle" x="273.5" y="-506.3" font-family="Helvetica,sans-Serif" font-size="14.00">samples = 50</text>
<text text-anchor="middle" x="273.5" y="-491.3" font-family="Helvetica,sans-Serif" font-size="14.00">value = [50, 0, 0]</text>
<text text-anchor="middle" x="273.5" y="-476.3" font-family="Helvetica,sans-Serif" font-size="14.00">class = sentosa</text>
</g>
<!-- 0&#45;&gt;1 -->
<g id="edge1" class="edge">
<title>0&#45;&gt;1</title>
<path fill="none" stroke="black" d="M320.32,-579.58C313.74,-568.88 306.62,-557.32 299.97,-546.52"/>
<polygon fill="black" stroke="black" points="303.05,-544.83 294.82,-538.15 297.08,-548.5 303.05,-544.83"/>
<text text-anchor="middle" x="288.24" y="-557.48" font-family="Helvetica,sans-Serif" font-size="14.00">True</text>
</g>
<!-- 2 -->
<g id="node3" class="node">
<title>2</title>
<path fill="#ffffff" stroke="black" d="M473,-544C473,-544 362,-544 362,-544 356,-544 350,-538 350,-532 350,-532 350,-473 350,-473 350,-467 356,-461 362,-461 362,-461 473,-461 473,-461 479,-461 485,-467 485,-473 485,-473 485,-532 485,-532 485,-538 479,-544 473,-544"/>
<text text-anchor="middle" x="417.5" y="-528.8" font-family="Helvetica,sans-Serif" font-size="14.00">petal_width &lt;= 1.75</text>
<text text-anchor="middle" x="417.5" y="-513.8" font-family="Helvetica,sans-Serif" font-size="14.00">entropy = 1.0</text>
<text text-anchor="middle" x="417.5" y="-498.8" font-family="Helvetica,sans-Serif" font-size="14.00">samples = 100</text>
<text text-anchor="middle" x="417.5" y="-483.8" font-family="Helvetica,sans-Serif" font-size="14.00">value = [0, 50, 50]</text>
<text text-anchor="middle" x="417.5" y="-468.8" font-family="Helvetica,sans-Serif" font-size="14.00">class = versicolor</text>
</g>
<!-- 0&#45;&gt;2 -->
<g id="edge2" class="edge">
<title>0&#45;&gt;2</title>
<path fill="none" stroke="black" d="M370.68,-579.58C375.81,-571.25 381.26,-562.39 386.56,-553.78"/>
<polygon fill="black" stroke="black" points="389.4,-555.84 391.66,-545.49 383.44,-552.17 389.4,-555.84"/>
<text text-anchor="middle" x="398.24" y="-564.82" font-family="Helvetica,sans-Serif" font-size="14.00">False</text>
</g>
<!-- 3 -->
<g id="node4" class="node">
<title>3</title>
<path fill="#4de88e" stroke="black" d="M396.5,-425C396.5,-425 280.5,-425 280.5,-425 274.5,-425 268.5,-419 268.5,-413 268.5,-413 268.5,-354 268.5,-354 268.5,-348 274.5,-342 280.5,-342 280.5,-342 396.5,-342 396.5,-342 402.5,-342 408.5,-348 408.5,-354 408.5,-354 408.5,-413 408.5,-413 408.5,-419 402.5,-425 396.5,-425"/>
<text text-anchor="middle" x="338.5" y="-409.8" font-family="Helvetica,sans-Serif" font-size="14.00">petal_length &lt;= 4.95</text>
<text text-anchor="middle" x="338.5" y="-394.8" font-family="Helvetica,sans-Serif" font-size="14.00">entropy = 0.445</text>
<text text-anchor="middle" x="338.5" y="-379.8" font-family="Helvetica,sans-Serif" font-size="14.00">samples = 54</text>
<text text-anchor="middle" x="338.5" y="-364.8" font-family="Helvetica,sans-Serif" font-size="14.00">value = [0, 49, 5]</text>
<text text-anchor="middle" x="338.5" y="-349.8" font-family="Helvetica,sans-Serif" font-size="14.00">class = versicolor</text>
</g>
<!-- 2&#45;&gt;3 -->
<g id="edge3" class="edge">
<title>2&#45;&gt;3</title>
<path fill="none" stroke="black" d="M389.87,-460.58C384.18,-452.16 378.14,-443.2 372.26,-434.5"/>
<polygon fill="black" stroke="black" points="375.33,-432.78 366.83,-426.45 369.52,-436.7 375.33,-432.78"/>
</g>
<!-- 12 -->
<g id="node13" class="node">
<title>12</title>
<path fill="#843de6" stroke="black" d="M554.5,-425C554.5,-425 438.5,-425 438.5,-425 432.5,-425 426.5,-419 426.5,-413 426.5,-413 426.5,-354 426.5,-354 426.5,-348 432.5,-342 438.5,-342 438.5,-342 554.5,-342 554.5,-342 560.5,-342 566.5,-348 566.5,-354 566.5,-354 566.5,-413 566.5,-413 566.5,-419 560.5,-425 554.5,-425"/>
<text text-anchor="middle" x="496.5" y="-409.8" font-family="Helvetica,sans-Serif" font-size="14.00">petal_length &lt;= 4.85</text>
<text text-anchor="middle" x="496.5" y="-394.8" font-family="Helvetica,sans-Serif" font-size="14.00">entropy = 0.151</text>
<text text-anchor="middle" x="496.5" y="-379.8" font-family="Helvetica,sans-Serif" font-size="14.00">samples = 46</text>
<text text-anchor="middle" x="496.5" y="-364.8" font-family="Helvetica,sans-Serif" font-size="14.00">value = [0, 1, 45]</text>
<text text-anchor="middle" x="496.5" y="-349.8" font-family="Helvetica,sans-Serif" font-size="14.00">class = virginica</text>
</g>
<!-- 2&#45;&gt;12 -->
<g id="edge12" class="edge">
<title>2&#45;&gt;12</title>
<path fill="none" stroke="black" d="M445.13,-460.58C450.82,-452.16 456.86,-443.2 462.74,-434.5"/>
<polygon fill="black" stroke="black" points="465.48,-436.7 468.17,-426.45 459.67,-432.78 465.48,-436.7"/>
</g>
<!-- 4 -->
<g id="node5" class="node">
<title>4</title>
<path fill="#3de684" stroke="black" d="M245,-306C245,-306 134,-306 134,-306 128,-306 122,-300 122,-294 122,-294 122,-235 122,-235 122,-229 128,-223 134,-223 134,-223 245,-223 245,-223 251,-223 257,-229 257,-235 257,-235 257,-294 257,-294 257,-300 251,-306 245,-306"/>
<text text-anchor="middle" x="189.5" y="-290.8" font-family="Helvetica,sans-Serif" font-size="14.00">petal_width &lt;= 1.65</text>
<text text-anchor="middle" x="189.5" y="-275.8" font-family="Helvetica,sans-Serif" font-size="14.00">entropy = 0.146</text>
<text text-anchor="middle" x="189.5" y="-260.8" font-family="Helvetica,sans-Serif" font-size="14.00">samples = 48</text>
<text text-anchor="middle" x="189.5" y="-245.8" font-family="Helvetica,sans-Serif" font-size="14.00">value = [0, 47, 1]</text>
<text text-anchor="middle" x="189.5" y="-230.8" font-family="Helvetica,sans-Serif" font-size="14.00">class = versicolor</text>
</g>
<!-- 3&#45;&gt;4 -->
<g id="edge4" class="edge">
<title>3&#45;&gt;4</title>
<path fill="none" stroke="black" d="M286.39,-341.58C274.82,-332.49 262.45,-322.79 250.56,-313.45"/>
<polygon fill="black" stroke="black" points="252.8,-310.76 242.77,-307.33 248.48,-316.26 252.8,-310.76"/>
</g>
<!-- 7 -->
<g id="node8" class="node">
<title>7</title>
<path fill="#c09cf2" stroke="black" d="M398,-306C398,-306 287,-306 287,-306 281,-306 275,-300 275,-294 275,-294 275,-235 275,-235 275,-229 281,-223 287,-223 287,-223 398,-223 398,-223 404,-223 410,-229 410,-235 410,-235 410,-294 410,-294 410,-300 404,-306 398,-306"/>
<text text-anchor="middle" x="342.5" y="-290.8" font-family="Helvetica,sans-Serif" font-size="14.00">petal_width &lt;= 1.55</text>
<text text-anchor="middle" x="342.5" y="-275.8" font-family="Helvetica,sans-Serif" font-size="14.00">entropy = 0.918</text>
<text text-anchor="middle" x="342.5" y="-260.8" font-family="Helvetica,sans-Serif" font-size="14.00">samples = 6</text>
<text text-anchor="middle" x="342.5" y="-245.8" font-family="Helvetica,sans-Serif" font-size="14.00">value = [0, 2, 4]</text>
<text text-anchor="middle" x="342.5" y="-230.8" font-family="Helvetica,sans-Serif" font-size="14.00">class = virginica</text>
</g>
<!-- 3&#45;&gt;7 -->
<g id="edge7" class="edge">
<title>3&#45;&gt;7</title>
<path fill="none" stroke="black" d="M339.9,-341.58C340.17,-333.79 340.45,-325.53 340.72,-317.45"/>
<polygon fill="black" stroke="black" points="344.21,-317.83 341.06,-307.71 337.22,-317.59 344.21,-317.83"/>
</g>
<!-- 5 -->
<g id="node6" class="node">
<title>5</title>
<path fill="#39e581" stroke="black" d="M109,-179.5C109,-179.5 12,-179.5 12,-179.5 6,-179.5 0,-173.5 0,-167.5 0,-167.5 0,-123.5 0,-123.5 0,-117.5 6,-111.5 12,-111.5 12,-111.5 109,-111.5 109,-111.5 115,-111.5 121,-117.5 121,-123.5 121,-123.5 121,-167.5 121,-167.5 121,-173.5 115,-179.5 109,-179.5"/>
<text text-anchor="middle" x="60.5" y="-164.3" font-family="Helvetica,sans-Serif" font-size="14.00">entropy = 0.0</text>
<text text-anchor="middle" x="60.5" y="-149.3" font-family="Helvetica,sans-Serif" font-size="14.00">samples = 47</text>
<text text-anchor="middle" x="60.5" y="-134.3" font-family="Helvetica,sans-Serif" font-size="14.00">value = [0, 47, 0]</text>
<text text-anchor="middle" x="60.5" y="-119.3" font-family="Helvetica,sans-Serif" font-size="14.00">class = versicolor</text>
</g>
<!-- 4&#45;&gt;5 -->
<g id="edge5" class="edge">
<title>4&#45;&gt;5</title>
<path fill="none" stroke="black" d="M144.38,-222.58C131.87,-211.23 118.28,-198.9 105.76,-187.55"/>
<polygon fill="black" stroke="black" points="108.16,-185 98.4,-180.88 103.46,-190.19 108.16,-185"/>
</g>
<!-- 6 -->
<g id="node7" class="node">
<title>6</title>
<path fill="#8139e5" stroke="black" d="M240,-179.5C240,-179.5 151,-179.5 151,-179.5 145,-179.5 139,-173.5 139,-167.5 139,-167.5 139,-123.5 139,-123.5 139,-117.5 145,-111.5 151,-111.5 151,-111.5 240,-111.5 240,-111.5 246,-111.5 252,-117.5 252,-123.5 252,-123.5 252,-167.5 252,-167.5 252,-173.5 246,-179.5 240,-179.5"/>
<text text-anchor="middle" x="195.5" y="-164.3" font-family="Helvetica,sans-Serif" font-size="14.00">entropy = 0.0</text>
<text text-anchor="middle" x="195.5" y="-149.3" font-family="Helvetica,sans-Serif" font-size="14.00">samples = 1</text>
<text text-anchor="middle" x="195.5" y="-134.3" font-family="Helvetica,sans-Serif" font-size="14.00">value = [0, 0, 1]</text>
<text text-anchor="middle" x="195.5" y="-119.3" font-family="Helvetica,sans-Serif" font-size="14.00">class = virginica</text>
</g>
<!-- 4&#45;&gt;6 -->
<g id="edge6" class="edge">
<title>4&#45;&gt;6</title>
<path fill="none" stroke="black" d="M191.6,-222.58C192.12,-212.43 192.68,-201.5 193.21,-191.18"/>
<polygon fill="black" stroke="black" points="196.69,-191.54 193.71,-181.37 189.7,-191.18 196.69,-191.54"/>
</g>
<!-- 8 -->
<g id="node9" class="node">
<title>8</title>
<path fill="#8139e5" stroke="black" d="M382,-179.5C382,-179.5 293,-179.5 293,-179.5 287,-179.5 281,-173.5 281,-167.5 281,-167.5 281,-123.5 281,-123.5 281,-117.5 287,-111.5 293,-111.5 293,-111.5 382,-111.5 382,-111.5 388,-111.5 394,-117.5 394,-123.5 394,-123.5 394,-167.5 394,-167.5 394,-173.5 388,-179.5 382,-179.5"/>
<text text-anchor="middle" x="337.5" y="-164.3" font-family="Helvetica,sans-Serif" font-size="14.00">entropy = 0.0</text>
<text text-anchor="middle" x="337.5" y="-149.3" font-family="Helvetica,sans-Serif" font-size="14.00">samples = 3</text>
<text text-anchor="middle" x="337.5" y="-134.3" font-family="Helvetica,sans-Serif" font-size="14.00">value = [0, 0, 3]</text>
<text text-anchor="middle" x="337.5" y="-119.3" font-family="Helvetica,sans-Serif" font-size="14.00">class = virginica</text>
</g>
<!-- 7&#45;&gt;8 -->
<g id="edge8" class="edge">
<title>7&#45;&gt;8</title>
<path fill="none" stroke="black" d="M340.75,-222.58C340.32,-212.43 339.85,-201.5 339.41,-191.18"/>
<polygon fill="black" stroke="black" points="342.91,-191.21 338.99,-181.37 335.92,-191.51 342.91,-191.21"/>
</g>
<!-- 9 -->
<g id="node10" class="node">
<title>9</title>
<path fill="#9cf2c0" stroke="black" d="M540.5,-187C540.5,-187 424.5,-187 424.5,-187 418.5,-187 412.5,-181 412.5,-175 412.5,-175 412.5,-116 412.5,-116 412.5,-110 418.5,-104 424.5,-104 424.5,-104 540.5,-104 540.5,-104 546.5,-104 552.5,-110 552.5,-116 552.5,-116 552.5,-175 552.5,-175 552.5,-181 546.5,-187 540.5,-187"/>
<text text-anchor="middle" x="482.5" y="-171.8" font-family="Helvetica,sans-Serif" font-size="14.00">petal_length &lt;= 5.45</text>
<text text-anchor="middle" x="482.5" y="-156.8" font-family="Helvetica,sans-Serif" font-size="14.00">entropy = 0.918</text>
<text text-anchor="middle" x="482.5" y="-141.8" font-family="Helvetica,sans-Serif" font-size="14.00">samples = 3</text>
<text text-anchor="middle" x="482.5" y="-126.8" font-family="Helvetica,sans-Serif" font-size="14.00">value = [0, 2, 1]</text>
<text text-anchor="middle" x="482.5" y="-111.8" font-family="Helvetica,sans-Serif" font-size="14.00">class = versicolor</text>
</g>
<!-- 7&#45;&gt;9 -->
<g id="edge9" class="edge">
<title>7&#45;&gt;9</title>
<path fill="none" stroke="black" d="M391.47,-222.58C402.29,-213.53 413.86,-203.87 424.99,-194.56"/>
<polygon fill="black" stroke="black" points="427.21,-197.27 432.64,-188.17 422.72,-191.9 427.21,-197.27"/>
</g>
<!-- 10 -->
<g id="node11" class="node">
<title>10</title>
<path fill="#39e581" stroke="black" d="M463,-68C463,-68 366,-68 366,-68 360,-68 354,-62 354,-56 354,-56 354,-12 354,-12 354,-6 360,0 366,0 366,0 463,0 463,0 469,0 475,-6 475,-12 475,-12 475,-56 475,-56 475,-62 469,-68 463,-68"/>
<text text-anchor="middle" x="414.5" y="-52.8" font-family="Helvetica,sans-Serif" font-size="14.00">entropy = 0.0</text>
<text text-anchor="middle" x="414.5" y="-37.8" font-family="Helvetica,sans-Serif" font-size="14.00">samples = 2</text>
<text text-anchor="middle" x="414.5" y="-22.8" font-family="Helvetica,sans-Serif" font-size="14.00">value = [0, 2, 0]</text>
<text text-anchor="middle" x="414.5" y="-7.8" font-family="Helvetica,sans-Serif" font-size="14.00">class = versicolor</text>
</g>
<!-- 9&#45;&gt;10 -->
<g id="edge10" class="edge">
<title>9&#45;&gt;10</title>
<path fill="none" stroke="black" d="M457.18,-103.73C451.97,-95.34 446.47,-86.47 441.21,-78.01"/>
<polygon fill="black" stroke="black" points="444.23,-76.23 435.98,-69.59 438.28,-79.93 444.23,-76.23"/>
</g>
<!-- 11 -->
<g id="node12" class="node">
<title>11</title>
<path fill="#8139e5" stroke="black" d="M594,-68C594,-68 505,-68 505,-68 499,-68 493,-62 493,-56 493,-56 493,-12 493,-12 493,-6 499,0 505,0 505,0 594,0 594,0 600,0 606,-6 606,-12 606,-12 606,-56 606,-56 606,-62 600,-68 594,-68"/>
<text text-anchor="middle" x="549.5" y="-52.8" font-family="Helvetica,sans-Serif" font-size="14.00">entropy = 0.0</text>
<text text-anchor="middle" x="549.5" y="-37.8" font-family="Helvetica,sans-Serif" font-size="14.00">samples = 1</text>
<text text-anchor="middle" x="549.5" y="-22.8" font-family="Helvetica,sans-Serif" font-size="14.00">value = [0, 0, 1]</text>
<text text-anchor="middle" x="549.5" y="-7.8" font-family="Helvetica,sans-Serif" font-size="14.00">class = virginica</text>
</g>
<!-- 9&#45;&gt;11 -->
<g id="edge11" class="edge">
<title>9&#45;&gt;11</title>
<path fill="none" stroke="black" d="M507.45,-103.73C512.58,-95.34 518,-86.47 523.19,-78.01"/>
<polygon fill="black" stroke="black" points="526.1,-79.95 528.33,-69.59 520.13,-76.29 526.1,-79.95"/>
</g>
<!-- 13 -->
<g id="node14" class="node">
<title>13</title>
<path fill="#c09cf2" stroke="black" d="M537,-298.5C537,-298.5 448,-298.5 448,-298.5 442,-298.5 436,-292.5 436,-286.5 436,-286.5 436,-242.5 436,-242.5 436,-236.5 442,-230.5 448,-230.5 448,-230.5 537,-230.5 537,-230.5 543,-230.5 549,-236.5 549,-242.5 549,-242.5 549,-286.5 549,-286.5 549,-292.5 543,-298.5 537,-298.5"/>
<text text-anchor="middle" x="492.5" y="-283.3" font-family="Helvetica,sans-Serif" font-size="14.00">entropy = 0.918</text>
<text text-anchor="middle" x="492.5" y="-268.3" font-family="Helvetica,sans-Serif" font-size="14.00">samples = 3</text>
<text text-anchor="middle" x="492.5" y="-253.3" font-family="Helvetica,sans-Serif" font-size="14.00">value = [0, 1, 2]</text>
<text text-anchor="middle" x="492.5" y="-238.3" font-family="Helvetica,sans-Serif" font-size="14.00">class = virginica</text>
</g>
<!-- 12&#45;&gt;13 -->
<g id="edge13" class="edge">
<title>12&#45;&gt;13</title>
<path fill="none" stroke="black" d="M495.1,-341.58C494.75,-331.43 494.38,-320.5 494.03,-310.18"/>
<polygon fill="black" stroke="black" points="497.53,-310.25 493.69,-300.37 490.54,-310.49 497.53,-310.25"/>
</g>
<!-- 14 -->
<g id="node15" class="node">
<title>14</title>
<path fill="#8139e5" stroke="black" d="M672,-298.5C672,-298.5 579,-298.5 579,-298.5 573,-298.5 567,-292.5 567,-286.5 567,-286.5 567,-242.5 567,-242.5 567,-236.5 573,-230.5 579,-230.5 579,-230.5 672,-230.5 672,-230.5 678,-230.5 684,-236.5 684,-242.5 684,-242.5 684,-286.5 684,-286.5 684,-292.5 678,-298.5 672,-298.5"/>
<text text-anchor="middle" x="625.5" y="-283.3" font-family="Helvetica,sans-Serif" font-size="14.00">entropy = 0.0</text>
<text text-anchor="middle" x="625.5" y="-268.3" font-family="Helvetica,sans-Serif" font-size="14.00">samples = 43</text>
<text text-anchor="middle" x="625.5" y="-253.3" font-family="Helvetica,sans-Serif" font-size="14.00">value = [0, 0, 43]</text>
<text text-anchor="middle" x="625.5" y="-238.3" font-family="Helvetica,sans-Serif" font-size="14.00">class = virginica</text>
</g>
<!-- 12&#45;&gt;14 -->
<g id="edge14" class="edge">
<title>12&#45;&gt;14</title>
<path fill="none" stroke="black" d="M541.62,-341.58C554.13,-330.23 567.72,-317.9 580.24,-306.55"/>
<polygon fill="black" stroke="black" points="582.54,-309.19 587.6,-299.88 577.84,-304 582.54,-309.19"/>
</g>
</g>
</svg>
